#!OML:ASF H:\BreakDance\Project 1\Capture day 1\Session 1\Male.ASF
:FULLY-SPECIFIED
:DEGREES
210
root 21.4359 14.2826 0.240428 11.411 -21.6794 9.04345
lowerback -0.0247813 -2.31531 -12.3698
upperback 2.21035 -2.87291 -3.47482
thorax 2.77306 -1.65996 3.18732
lowerneck 3.76393 -16.308 -13.1583
upperneck -17.4077 -20.8658 22.1257
head -1.8012 -11.1354 8.74997
rclavicle -1.23246e-014 -1.82882e-014
rhumerus -48.9275 2.17562 -92.2277
rradius 22.9985
rwrist 6.0823
rhand -17.9539 -24.8582
rfingers 7.12502
rthumb 8.31484 -54.6745
lclavicle -1.23246e-014 -1.82882e-014
lhumerus -35.5935 17.5179 37.0005
lradius 15.2151
lwrist -29.0755
lhand -8.78741 -15.7422
lfingers 7.12502
lthumb 17.1511 13.5208
rfemur -30.6622 -9.93903 9.15229
rtibia 83.2676
rfoot -18.0698 7.81928
rtoes -21.3556
lfemur -36.9481 20.686 -24.4315
ltibia 68.9335
lfoot -44.1955 -7.94067
ltoes -33.6813
211
root 21.4697 14.3107 0.209526 11.5118 -22.0259 8.68646
lowerback -0.210995 -2.29896 -11.9943
upperback 2.1032 -2.83781 -3.45418
thorax 2.73898 -1.62964 3.00221
lowerneck 3.70484 -16.3058 -13.1747
upperneck -17.2632 -20.8913 21.8785
head -1.77825 -11.124 8.66374
rclavicle -3.18055e-015 -5.56597e-015
rhumerus -49.7837 2.80121 -92.9213
rradius 23.2433
rwrist 6.42099
rhand -17.5394 -24.5201
rfingers 7.12502
rthumb 8.71479 -54.3202
lclavicle -3.18055e-015 -5.56597e-015
lhumerus -36.2165 17.608 37.3037
lradius 15.5806
lwrist -26.6909
lhand -9.77593 -15.8973
lfingers 7.12502
lthumb 16.1994 13.4458
rfemur -29.6308 -10.4752 9.90126
rtibia 81.6515
rfoot -19.7686 5.66815
rtoes -23.3605
lfemur -37.036 20.9322 -24.2547
ltibia 68.7869
lfoot -44.0146 -7.99517
ltoes -33.4283
212
root 21.4964 14.3568 0.182528 11.6277 -22.3993 8.30313
lowerback -0.422119 -2.3011 -11.6577
upperback 1.99824 -2.82413 -3.39331
thorax 2.72943 -1.61265 2.87767
lowerneck 3.66125 -16.2881 -13.1871
upperneck -17.161 -20.8919 21.6402
head -1.77332 -11.1029 8.58711
rclavicle -5.04913e-014 1.90833e-014
rhumerus -50.5612 3.42259 -93.5375
rradius 23.56
rwrist 6.65551
rhand -17.4061 -24.1906
rfingers 7.12502
rthumb 8.84346 -53.9853
lclavicle -5.04913e-014 1.90833e-014
lhumerus -36.8194 17.5479 37.8869
lradius 15.888
lwrist -24.1196
lhand -10.7995 -16.2993
lfingers 7.12502
lthumb 15.2136 13.1213
rfemur -28.6856 -10.991 10.5712
rtibia 80.0437
rfoot -20.8724 4.68561
rtoes -21.4408
lfemur -36.97 21.1297 -24.0505
ltibia 68.376
lfoot -43.7752 -7.79605
ltoes -33.4589
213
root 21.5166 14.42 0.15894 11.7477 -22.8033 7.92493
lowerback -0.659337 -2.3262 -11.3913
upperback 1.8995 -2.83684 -3.29486
thorax 2.75119 -1.61228 2.82744
lowerneck 3.66734 -16.2386 -13.2237
upperneck -17.1438 -20.8441 21.4551
head -1.79878 -11.0638 8.54477
rclavicle -1.07344e-014 3.4191e-014
rhumerus -51.2437 4.03312 -94.0486
rradius 23.9407
rwrist 6.74952
rhand -17.4543 -23.9083
rfingers 7.12502
rthumb 8.797 -53.7049
lclavicle -1.07344e-014 3.4191e-014
lhumerus -37.4203 17.3477 38.7599
lradius 16.1591
lwrist -21.3725
lhand -11.8616 -16.8862
lfingers 7.12502
lthumb 14.1904 12.6091
rfemur -27.8588 -11.4569 11.122
rtibia 78.499
rfoot -21.5526 4.19947
rtoes -19.829
lfemur -36.7554 21.2551 -23.8503
ltibia 67.7163
lfoot -43.4613 -7.41647
ltoes -33.6416
214
root 21.5313 14.4981 0.138242 11.8586 -23.2401 7.56456
lowerback -0.916571 -2.34841 -11.1469
upperback 1.82414 -2.84134 -3.20838
thorax 2.80859 -1.61059 2.77505
lowerneck 3.67267 -16.19 -13.2042
upperneck -17.1795 -20.7847 21.3247
head -1.83983 -11.0271 8.51573
rclavicle -3.73715e-014 -2.70347e-014
rhumerus -51.7883 4.51361 -94.4528
rradius 24.3621
rwrist 6.72027
rhand -17.5963 -23.6881
rfingers 7.12502
rthumb 8.65996 -53.4905
lclavicle -3.73715e-014 -2.70347e-014
lhumerus -37.9096 16.8884 39.9673
lradius 16.4151
lwrist -18.4133
lhand -12.9433 -17.604
lfingers 7.12502
lthumb 13.1479 11.9615
rfemur -27.1707 -11.8616 11.5352
rtibia 77.0523
rfoot -21.7359 4.25023
rtoes -18.5544
lfemur -36.3976 21.2859 -23.6602
ltibia 66.8409
lfoot -43.0536 -6.97294
ltoes -33.7659
215
root 21.5426 14.5879 0.119645 11.955 -23.7129 7.20963
lowerback -1.17139 -2.36129 -10.8785
upperback 1.76589 -2.83398 -3.14498
thorax 2.87867 -1.60344 2.68553
lowerneck 3.67488 -16.1529 -13.1202
upperneck -17.2451 -20.731 21.2297
head -1.89024 -10.9998 8.4899
rclavicle -9.74045e-014 6.36111e-015
rhumerus -52.2033 4.85917 -94.7464
rradius 24.8179
rwrist 6.5835
rhand -17.7275 -23.5188
rfingers 7.12502
rthumb 8.53329 -53.3263
lclavicle -9.74045e-014 6.36111e-015
lhumerus -38.2939 16.088 41.5323
lradius 16.6929
lwrist -15.2403
lhand -14.0635 -18.3631
lfingers 7.12502
lthumb 12.0678 11.2689
rfemur -26.6284 -12.225 11.8277
rtibia 75.7202
rfoot -21.4183 4.78667
rtoes -17.3317
lfemur -35.9132 21.2175 -23.4659
ltibia 65.7952
lfoot -42.5519 -6.48519
ltoes -33.7973
216
root 21.5516 14.6865 0.102742 12.0344 -24.227 6.84863
lowerback -1.4068 -2.35727 -10.5491
upperback 1.71724 -2.80874 -3.11583
thorax 2.9406 -1.58581 2.52858
lowerneck 3.6638 -16.1348 -12.9457
upperneck -17.3154 -20.6943 21.142
head -1.94598 -10.9862 8.45228
rclavicle 6.36111e-015 -9.54166e-015
rhumerus -52.5123 5.06147 -94.9427
rradius 25.3145
rwrist 6.35587
rhand -17.7875 -23.4083
rfingers 7.12502
rthumb 8.47545 -53.2182
lclavicle 6.36111e-015 -9.54166e-015
lhumerus -38.5932 14.9643 43.4126
lradius 17.0195
lwrist -11.9642
lhand -15.2247 -19.0579
lfingers 7.12502
lthumb 10.948 10.6366
rfemur -26.23 -12.5596 12.0258
rtibia 74.5027
rfoot -20.6288 5.71667
rtoes -15.7849
lfemur -35.3179 21.0446 -23.2569
ltibia 64.6208
lfoot -41.9591 -5.88933
ltoes -33.8396
